<svg width="12" height="14" viewBox="0 0 12 14" xmlns="http://www.w3.org/2000/svg">
    <path d="M10.785 3.00999C10.6925 3.01707 10.6066 3.05719 10.545 3.12199L6 7.36399L1.455 3.12199C1.41712 3.08519 1.37076 3.05692 1.31943 3.03934C1.2681 3.02175 1.21315 3.01531 1.15875 3.02049C1.09091 3.02728 1.02653 3.05192 0.973119 3.09155C0.919704 3.13117 0.879452 3.18414 0.857052 3.24429C0.834653 3.30445 0.831027 3.3693 0.846599 3.4313C0.86217 3.4933 0.896297 3.5499 0.945004 3.59449L5.74501 8.07449C5.77845 8.10581 5.81819 8.13066 5.86195 8.14762C5.90571 8.16458 5.95263 8.1733 6 8.1733C6.04738 8.1733 6.0943 8.16458 6.13806 8.14762C6.18182 8.13066 6.22156 8.10581 6.255 8.07449L11.055 3.59449C11.1109 3.54745 11.1496 3.48525 11.1656 3.41663C11.1817 3.348 11.1743 3.27641 11.1445 3.21191C11.1147 3.1474 11.064 3.09324 10.9995 3.05702C10.935 3.02081 10.86 3.00436 10.785 3.00999Z"
          />
</svg>
